<?xml version="1.0" standalone="no"?><!DOCTYPE svg PUBLIC "-//W3C//DTD SVG 1.1//EN" "http://www.w3.org/Graphics/SVG/1.1/DTD/svg11.dtd"><svg t="1711100876689" class="icon" viewBox="0 0 1024 1024" version="1.1" xmlns="http://www.w3.org/2000/svg" p-id="4925" xmlns:xlink="http://www.w3.org/1999/xlink" width="200" height="200"><path d="M914.455814 1024H109.544186c-33.339535 0-60.328682-26.989147-60.328682-60.328682V500.886822c0-33.339535 26.989147-60.328682 60.328682-60.328682h804.11783c33.339535 0 60.328682 26.989147 60.328682 60.328682v462.784496c0 33.339535-26.989147 60.328682-59.534884 60.328682zM109.544186 473.103876c-15.875969 0-28.576744 12.700775-28.576744 28.576744V964.465116c0 15.875969 12.700775 28.576744 28.576744 28.576744h804.11783c15.875969 0 28.576744-12.700775 28.576744-28.576744V500.886822c0-15.875969-12.700775-28.576744-28.576744-28.576744H109.544186z" fill="#d81e06" p-id="4926"></path><path d="M775.541085 654.089922c-36.514729 0-65.885271-29.370543-65.885271-65.885271s29.370543-65.885271 65.885271-65.885271 65.885271 29.370543 65.885272 65.885271-30.164341 65.885271-65.885272 65.885271z m0-115.100775c-26.989147 0-50.009302 22.226357-50.009302 50.009303s22.226357 50.009302 50.009302 50.009302 50.009302-22.226357 50.009303-50.009302-23.020155-50.009302-50.009303-50.009303zM248.458915 654.089922c-36.514729 0-65.885271-29.370543-65.885272-65.885271s29.370543-65.885271 65.885272-65.885271 65.885271 29.370543 65.885271 65.885271-29.370543 65.885271-65.885271 65.885271z m0-115.100775c-26.989147 0-50.009302 22.226357-50.009303 50.009303s22.226357 50.009302 50.009303 50.009302 50.009302-22.226357 50.009302-50.009302-22.226357-50.009302-50.009302-50.009303z" fill="#d81e06" p-id="4927"></path><path d="M775.541085 604.08062c-5.556589 0-10.31938-2.381395-13.494573-7.937984L530.257364 217.500775c-4.762791-7.144186-2.381395-17.463566 5.556589-21.432558 7.144186-4.762791 17.463566-2.381395 21.432559 5.556589l231.789147 379.435659c4.762791 7.144186 2.381395 17.463566-5.556589 21.432558-2.381395 1.587597-5.556589 1.587597-7.937985 1.587597zM248.458915 604.08062c-3.175194 0-5.556589-0.793798-7.937985-2.381395-7.144186-4.762791-9.525581-14.288372-5.556589-21.432558l231.789147-379.435659c4.762791-7.144186 14.288372-9.525581 21.432559-5.556589 7.144186 4.762791 9.525581 14.288372 5.556589 21.432558L261.953488 596.936434c-3.175194 4.762791-7.937984 7.144186-13.494573 7.144186zM265.128682 740.613953c-23.813953 0-43.658915 7.937984-60.328682 23.813954-16.669767 15.875969-24.607752 35.72093-24.607752 59.534884s7.937984 43.658915 24.607752 59.534883c15.875969 15.875969 36.514729 23.813953 60.328682 23.813954s43.658915-7.937984 60.328682-23.813954c15.875969-15.875969 24.607752-35.72093 24.607752-59.534883s-7.937984-43.658915-24.607752-59.534884-36.514729-23.813953-60.328682-23.813954z m0 134.945737c-13.494574 0-24.607752-4.762791-34.133333-15.082171-9.525581-10.31938-13.494574-22.226357-13.494574-36.514728 0-14.288372 4.762791-26.989147 13.494574-36.514729 9.525581-10.31938 20.63876-15.082171 34.133333-15.082171 13.494574 0 24.607752 4.762791 34.133334 15.082171 9.525581 10.31938 13.494574 22.226357 13.494573 36.514729 0 14.288372-4.762791 26.195349-13.494573 36.514728-9.525581 10.31938-20.63876 15.082171-34.133334 15.082171zM436.589147 744.582946h-57.153488v161.141085h35.72093v-45.246512h21.432558c23.813953 0 41.277519-4.762791 53.184496-13.494573 11.906977-9.525581 17.463566-23.813953 17.463566-43.658915s-5.556589-34.927132-16.669767-44.452713c-11.113178-9.525581-29.370543-14.288372-53.978295-14.288372zM415.950388 829.51938v-53.978295h20.638759c11.906977 0 20.63876 1.587597 26.195349 5.556589 5.556589 3.968992 8.731783 10.31938 8.731783 19.844962s-2.381395 16.669767-6.350388 21.432558c-3.968992 4.762791-12.700775 7.144186-24.607751 7.144186h-24.607752zM651.708527 744.582946H535.813953v161.141085h118.275969v-31.751938H571.534884v-33.339535h72.235659v-30.958139h-72.235659v-33.339535h80.173643v-31.751938zM835.075969 744.582946h-36.514729v103.987597l-78.586046-103.987597H686.635659v161.141085h35.72093v-100.812403l76.204651 100.812403h36.514729V744.582946z" fill="#d81e06" p-id="4928"></path><path d="M512 31.751938c40.483721 0 73.823256 33.339535 73.823256 73.823256 0 40.483721-33.339535 73.823256-73.823256 73.823256-40.483721 0-73.823256-33.339535-73.823256-73.823256 0-40.483721 33.339535-73.823256 73.823256-73.823256m0-31.751938c-57.947287 0-105.575194 47.627907-105.575194 105.575194 0 57.947287 47.627907 105.575194 105.575194 105.575194s105.575194-47.627907 105.575194-105.575194c0-57.947287-47.627907-105.575194-105.575194-105.575194z" fill="#d81e06" p-id="4929"></path></svg>