<?xml version="1.0" standalone="no"?><!DOCTYPE svg PUBLIC "-//W3C//DTD SVG 1.1//EN" "http://www.w3.org/Graphics/SVG/1.1/DTD/svg11.dtd"><svg t="1711100865830" class="icon" viewBox="0 0 1024 1024" version="1.1" xmlns="http://www.w3.org/2000/svg" p-id="4761" xmlns:xlink="http://www.w3.org/1999/xlink" width="200" height="200"><path d="M938.4 986.4H85.6c-44.8 0-81.6-36.8-81.6-81.6V512c0-44.8 36.8-81.6 81.6-81.6h853.6c44.8 0 81.6 36.8 81.6 81.6v392.8c-0.8 44.8-37.6 81.6-82.4 81.6zM85.6 462.4c-27.2 0-49.6 22.4-49.6 49.6v392.8c0 27.2 22.4 49.6 49.6 49.6h853.6c27.2 0 49.6-22.4 49.6-49.6V512c0-27.2-22.4-49.6-49.6-49.6H85.6z" fill="#313C42" p-id="4762"></path><path d="M938.4 914.4H85.6c-4.8 0-9.6-4-9.6-9.6 0-4.8 3.2-8 8-8 1.6 0 3.2 0.8 4 1.6h848c1.6-0.8 2.4-1.6 4-1.6 4.8 0 8 3.2 8 8 0 5.6-4 9.6-9.6 9.6zM940 520c-1.6 0-3.2-0.8-4-1.6H88c-1.6 0.8-2.4 1.6-4 1.6-4.8 0-8-3.2-8-8s4-9.6 9.6-9.6h853.6c4.8 0 9.6 4 9.6 9.6-0.8 4-4 8-8.8 8zM900.8 462.4c-3.2 0-6.4-0.8-9.6-3.2L551.2 212c-7.2-4.8-8.8-15.2-3.2-22.4 5.6-7.2 15.2-8.8 22.4-3.2l340 247.2c7.2 4.8 8.8 15.2 3.2 22.4-3.2 4-8 6.4-12.8 6.4zM123.2 462.4c-4.8 0-9.6-2.4-12.8-6.4-4.8-7.2-4-16.8 3.2-22.4l340-247.2c7.2-4.8 16.8-4 22.4 3.2 4.8 7.2 4 16.8-3.2 22.4L132.8 459.2c-3.2 2.4-6.4 3.2-9.6 3.2zM191.2 617.6c-25.6 0-47.2 8.8-65.6 26.4-17.6 17.6-26.4 39.2-26.4 64.8 0 25.6 8.8 47.2 26.4 64.8 17.6 16.8 40 25.6 66.4 25.6 27.2 0 50.4-11.2 70.4-33.6l-24.8-25.6c-12 15.2-28 23.2-47.2 23.2-14.4 0-25.6-4.8-36-14.4-9.6-9.6-14.4-23.2-14.4-39.2 0-16 5.6-29.6 16-39.2 10.4-9.6 23.2-14.4 37.6-14.4 18.4 0 33.6 8 46.4 23.2l24-27.2c-20-23.2-44-34.4-72.8-34.4zM332 621.6h-39.2v175.2h113.6v-34.4h-74.4V621.6zM512.8 617.6c-25.6 0-48 8.8-65.6 25.6-17.6 17.6-26.4 39.2-26.4 64.8 0 25.6 8.8 47.2 26.4 64.8 17.6 17.6 39.2 25.6 65.6 25.6 25.6 0 48-8.8 65.6-25.6 17.6-17.6 26.4-39.2 26.4-64.8 0-25.6-8.8-47.2-26.4-64.8-18.4-16.8-40-25.6-65.6-25.6z m0 147.2c-14.4 0-27.2-5.6-36.8-16.8-10.4-11.2-15.2-24-15.2-40s4.8-28.8 15.2-40c10.4-11.2 22.4-16.8 36.8-16.8 14.4 0 27.2 5.6 36.8 16.8 10.4 11.2 15.2 24 15.2 40s-4.8 28.8-15.2 40c-10.4 11.2-22.4 16.8-36.8 16.8zM693.6 617.6c-17.6 0-32.8 4.8-44.8 13.6s-17.6 21.6-17.6 38.4c0 16.8 4.8 28.8 14.4 36.8 9.6 8 24 14.4 44.8 19.2 12.8 3.2 21.6 6.4 25.6 9.6 4 3.2 6.4 7.2 6.4 12.8 0 5.6-2.4 9.6-6.4 12.8-4 3.2-9.6 4.8-16.8 4.8-16 0-33.6-8-52-24.8l-24 27.2c22.4 20.8 47.2 31.2 75.2 31.2 19.2 0 34.4-4.8 46.4-14.4 12-9.6 17.6-22.4 17.6-38.4s-4.8-28-13.6-36-22.4-14.4-38.4-18.4c-16.8-4-27.2-8-32-10.4-4.8-3.2-7.2-7.2-7.2-12s1.6-8.8 5.6-12c4-3.2 8.8-4.8 15.2-4.8 16 0 32 5.6 47.2 17.6l20-28.8c-8.8-7.2-19.2-12.8-30.4-16.8-12-4.8-23.2-7.2-35.2-7.2zM922.4 621.6H796v175.2h128.8v-34.4h-89.6v-36h78.4v-33.6h-78.4v-36h87.2v-35.2z" fill="#313C42" p-id="4763"></path><path d="M512 69.6c32 0 57.6 25.6 57.6 57.6S544 184.8 512 184.8s-57.6-25.6-57.6-57.6c0-31.2 25.6-57.6 57.6-57.6m0-32c-49.6 0-89.6 40-89.6 89.6s40 89.6 89.6 89.6 89.6-40 89.6-89.6S561.6 37.6 512 37.6z" fill="#313C42" p-id="4764"></path></svg>